<svg width="44" height="44" viewBox="0 0 44 44" fill="none" xmlns="http://www.w3.org/2000/svg">
<circle cx="22" cy="22" r="22" fill="url(#paint0_linear)"/>
<path fill-rule="evenodd" clip-rule="evenodd" d="M29.1654 13.4229C30.4587 14.6317 31.1854 16.2711 31.1854 17.9805C31.1854 19.6899 30.4587 21.3293 29.1654 22.538C27.872 23.7467 26.1178 24.4258 24.2887 24.4258H17.8518L12.7943 29.1523V24.0391C11.2739 23.5235 9.99571 22.5249 9.18326 21.2179C8.3708 19.9109 8.07572 18.3785 8.34962 16.8888C8.62351 15.3991 9.44895 14.0467 10.6816 13.0681C11.9143 12.0895 13.4758 11.5469 15.0932 11.5352H24.2887C26.1178 11.5352 27.872 12.2142 29.1654 13.4229ZM29.0794 24.2806C30.5008 23.4026 31.3273 22.1554 31.9999 20.6924C33.0233 21.0105 34.2002 21.6259 34.8226 22.449C35.4451 23.272 35.7698 24.2596 35.7493 25.2673C35.7287 26.275 35.364 27.2502 34.7085 28.0504C34.0529 28.8508 33.1407 29.4343 32.1051 29.7157V33.7978L27.9212 29.9306H25.2085C23.9511 29.9247 22.7411 29.4814 21.8145 28.687C20.8879 27.8925 20.3112 26.804 20.1969 25.6337H24.2889C25.9928 25.6289 27.6579 25.1585 29.0794 24.2806Z" fill="white"/>
<defs>
<linearGradient id="paint0_linear" x1="22" y1="0" x2="22" y2="44" gradientUnits="userSpaceOnUse">
<stop stop-color="#08CA60"/>
<stop offset="1" stop-color="#007E39"/>
</linearGradient>
</defs>
</svg>